<?xml version="1.0" encoding="UTF-8"?>
<svg version="1.1" xmlns="http://www.w3.org/2000/svg" width="128" height="128">
<path d="M0 0 C16.83 0 33.66 0 51 0 C46.50296811 7.86980582 46.50296811 7.86980582 44.00390625 11.20703125 C43.45202637 11.94912842 42.90014648 12.69122559 42.33154297 13.45581055 C41.4558667 14.62237183 41.4558667 14.62237183 40.5625 15.8125 C39.30520522 17.50202075 38.04871357 19.19213942 36.79296875 20.8828125 C36.1592334 21.73520508 35.52549805 22.58759766 34.87255859 23.46582031 C31.46356378 28.07929699 28.12086158 32.74071369 24.7890625 37.41015625 C22.08827802 41.17791731 19.33300655 44.87766037 16.44921875 48.5078125 C15.59674561 49.59412964 15.59674561 49.59412964 14.72705078 50.70239258 C13.64312127 52.07646162 12.54443439 53.43905737 11.42919922 54.7878418 C8.64283199 58.20073625 8.64283199 58.20073625 8.2890625 62.40625 C10.83722924 66.26922423 13.52218866 69.995905 16.3125 73.6875 C17.58930472 75.39786814 18.86532862 77.10881941 20.140625 78.8203125 C20.78708984 79.6855957 21.43355469 80.55087891 22.09960938 81.44238281 C24.95780543 85.28905058 27.76319876 89.17286319 30.5625 93.0625 C31.0874707 93.79065918 31.61244141 94.51881836 32.15332031 95.26904297 C34.35927593 98.32972206 36.56283131 101.39212274 38.765625 104.45507812 C39.95578694 106.10966195 41.14645417 107.76388244 42.33764648 109.41772461 C43.45552176 110.96977536 44.57229105 112.52262354 45.68774414 114.07641602 C47.84635799 117.07279315 49.99479665 119.99380227 52.37109375 122.82421875 C54 125 54 125 54 128 C47.06391585 128.35689127 40.13021458 128.60086851 33.18701172 128.76904297 C30.8293414 128.83917518 28.47227426 128.9345214 26.11669922 129.05615234 C7.12505949 130.01175705 7.12505949 130.01175705 2.01269531 126.72067261 C-1.23503255 123.53688743 -3.2652716 119.82731593 -5.1651001 115.73046875 C-6.29123837 113.39636009 -7.75637715 111.41699364 -9.328125 109.36328125 C-9.81047607 108.69393555 -10.29282715 108.02458984 -10.78979492 107.33496094 C-11.2716626 106.66754883 -11.75353027 106.00013672 -12.25 105.3125 C-12.78665283 104.5690332 -13.32330566 103.82556641 -13.8762207 103.05957031 C-17.35727502 98.24653378 -20.86598134 93.45477686 -24.39526367 88.67700195 C-26.1579302 86.29004269 -27.91504071 83.89906607 -29.671875 81.5078125 C-31.80403453 78.60852025 -33.96031443 75.73040348 -36.140625 72.8671875 C-37.07317976 71.61998835 -38.0054877 70.37260458 -38.9375 69.125 C-39.36893311 68.57231445 -39.80036621 68.01962891 -40.24487305 67.45019531 C-42.03182385 65.03040537 -43.06002204 63.63070677 -42.76879883 60.57055664 C-41.96000419 57.86626996 -40.99864748 56.22495151 -39.296875 53.98828125 C-38.73548828 53.23998047 -38.17410156 52.49167969 -37.59570312 51.72070312 C-36.98662109 50.92599609 -36.37753906 50.13128906 -35.75 49.3125 C-34.46268169 47.60090688 -33.1762431 45.88865181 -31.890625 44.17578125 C-31.23771484 43.31033691 -30.58480469 42.44489258 -29.91210938 41.55322266 C-27.05591913 37.7393772 -24.27657744 33.87198368 -21.5 30 C-16.19743634 22.6251984 -10.82115154 15.30688335 -5.40429688 8.015625 C-4.84291016 7.25765625 -4.28152344 6.4996875 -3.703125 5.71875 C-3.20458008 5.04779297 -2.70603516 4.37683594 -2.19238281 3.68554688 C-0.93866265 2.00353626 -0.93866265 2.00353626 0 0 Z " fill="#EB9847" transform="translate(74,0)"/>
<path d="M0 0 C14.52 0 29.04 0 44 0 C45.39013398 31.41702799 45.39013398 31.41702799 38.42285156 39.31738281 C37.47752108 40.32472381 36.51937745 41.32016961 35.54980469 42.30419922 C32.44734813 45.69891618 29.97160365 49.58938836 27.375 53.375 C26.34322558 54.84261016 25.30955608 56.30889104 24.2734375 57.7734375 C23.52320312 58.83820312 22.77296875 59.90296875 22 61 C27.52774216 70.30670771 34.03485746 78.75679638 40.69067383 87.2734375 C44.06008773 91.71656544 44.2678644 94.76513734 44.1953125 100.16796875 C44.19329834 100.87264282 44.19128418 101.57731689 44.18920898 102.30334473 C44.17875809 104.93146286 44.15083543 107.55948808 44.125 110.1875 C44.08375 116.065625 44.0425 121.94375 44 128 C29.48 128 14.96 128 0 128 C0 85.76 0 43.52 0 0 Z " fill="#248ECE" transform="translate(0,0)"/>
</svg>
